<?xml version="1.0" encoding="UTF-8" standalone="no"?>
<!DOCTYPE svg PUBLIC "-//W3C//DTD SVG 1.1//EN" "http://www.w3.org/Graphics/SVG/1.1/DTD/svg11.dtd">
<svg width="100%" height="100%" viewBox="0 0 2102 590" version="1.1" xmlns="http://www.w3.org/2000/svg" xmlns:xlink="http://www.w3.org/1999/xlink" xml:space="preserve" xmlns:serif="http://www.serif.com/" style="fill-rule:evenodd;clip-rule:evenodd;stroke-linejoin:round;stroke-miterlimit:2;">
    <g transform="matrix(1,0,0,1,-171.681,-492.904)">
        <g transform="matrix(0.514468,0,0,0.514468,-28.799,268.905)">
            <g transform="matrix(1,0,0,1,7.77502,9.71877)">
                <path d="M381.91,443.187L602.518,443.187L763.217,1036.99L770.217,1033.1L766.33,443.187L924.684,443.187L924.684,1493.76L746.872,1511.26L537.545,737.339L536.376,741.226L538.32,1544.3L381.91,1571.51L381.91,443.187Z" style="fill:rgb(219,32,44);fill-rule:nonzero;"/>
            </g>
            <path d="M1050.36,450.962L1525.04,452.906L1526.99,587.16L1233.22,587.16L1233.22,861.48L1468.23,855.649L1468.51,1003.51L1233.22,1007.4L1233.22,1308.97L1526.99,1289.53L1525.04,1445.17C1366.85,1447.96 1197.16,1471.05 1046.47,1485.99L1050.36,450.962Z" style="fill:rgb(219,32,44);fill-rule:nonzero;"/>
            <path d="M1751.11,589.104L1574.07,589.104L1574.07,450.962L2110.89,450.962L2110.89,589.104L1931.87,589.104L1931.87,1423.79L1753.05,1425.73L1751.11,589.104Z" style="fill:rgb(219,32,44);fill-rule:nonzero;"/>
            <path d="M2177.94,451.109L2632.79,451.109L2632.79,586.986L2353.03,586.986L2353.03,865.148L2575.98,865.148L2575.98,1006.02L2353.03,1006.02L2353.03,1417.95L2177.94,1417.95L2177.94,451.109Z" style="fill:rgb(219,32,44);fill-rule:nonzero;"/>
            <path d="M2960.79,1431.58C2876.75,1431.58 2808.53,1401.88 2763.92,1354.15C2719.3,1306.42 2700.88,1237.04 2700.88,1149.88L2700.88,701.542C2700.88,614.386 2723.19,554.719 2767.8,506.991C2812.42,459.263 2876.75,435.399 2960.79,435.399C3044.84,435.399 3109.16,459.263 3153.78,506.991C3198.39,554.719 3220.7,614.386 3220.7,701.542L3220.7,1149.88C3220.7,1237.04 3212.3,1310.31 3167.69,1358.04C3123.07,1405.77 3044.84,1431.58 2960.79,1431.58ZM2960.79,1275.94C3019.93,1275.94 3049.5,1232.37 3049.5,1160.78L3049.5,690.648C3049.5,619.056 3019.93,583.259 2960.79,583.259C2901.65,583.259 2872.08,619.056 2872.08,690.648L2872.08,1160.78C2872.08,1232.37 2901.65,1275.94 2960.79,1275.94Z" style="fill:rgb(219,32,44);fill-rule:nonzero;"/>
            <path d="M3579.45,1472.32C3495.4,1472.32 3434.96,1434.92 3390.35,1387.19C3345.73,1339.47 3323.42,1272.03 3323.42,1184.87L3323.42,701.542C3323.42,614.386 3341.84,556.663 3386.46,508.935C3431.07,461.207 3495.4,437.343 3579.45,437.343C3663.49,437.343 3727.82,461.207 3772.43,508.935C3817.05,556.663 3843.24,614.386 3843.24,701.542L3843.24,1198.48C3843.24,1285.63 3817.05,1370.2 3772.43,1417.93C3727.82,1465.66 3663.49,1472.32 3579.45,1472.32ZM3583.33,1316.76C3642.47,1316.76 3672.05,1280.96 3672.05,1209.37L3672.05,690.648C3672.05,619.056 3642.47,583.259 3583.33,583.259C3524.19,583.259 3494.62,619.056 3494.62,690.648L3494.62,1195.76C3494.62,1267.36 3524.19,1316.76 3583.33,1316.76Z" style="fill:rgb(219,32,44);fill-rule:nonzero;"/>
            <path d="M3948.7,450.962L4219.88,450.962C4304.96,450.962 4368.77,466.014 4411.32,511.667C4453.86,557.32 4475.13,624.243 4475.13,712.437L4475.13,1321.7C4475.13,1409.89 4451.91,1451.55 4409.37,1497.2C4366.83,1542.85 4304.96,1536.52 4219.88,1536.52L3946.75,1499.59L3948.7,450.962ZM4216.77,1369.23C4244.78,1369.23 4264.37,1370.64 4279.42,1354.04C4294.46,1337.44 4300.04,1347.4 4300.04,1310.04L4303.93,704.655C4303.93,667.303 4296.4,640.326 4281.36,623.725C4266.32,607.123 4244.78,598.823 4216.77,598.823L4129.61,598.823L4123.78,1363.39L4216.77,1369.23Z" style="fill:rgb(219,32,44);fill-rule:nonzero;"/>
        </g>
    </g>
</svg>
